<svg width="109" height="24" viewBox="0 0 109 24" fill="none" xmlns="http://www.w3.org/2000/svg">
<path d="M2.93211 6.28613V4.39648H7.52V13.5635C7.52 14.5361 7.1743 15.3682 6.48289 16.0596C5.79148 16.7451 4.96531 17.0879 4.00438 17.0879C3.0493 17.0879 2.22606 16.7451 1.53465 16.0596C0.843243 15.3682 0.49754 14.5361 0.49754 13.5635H2.38719C2.38719 14.0088 2.54539 14.3896 2.8618 14.7061C3.18406 15.0225 3.56492 15.1807 4.00438 15.1807C4.44969 15.1807 4.83055 15.0225 5.14695 14.7061C5.46922 14.3896 5.63035 14.0088 5.63035 13.5635V6.28613H2.93211ZM9.41703 17.4307L14.4971 3.5L15.7715 3.96582L10.6914 17.8965L9.41703 17.4307ZM25.4293 17V9.99512L23.4869 14.1172H22.1686L20.2086 9.97754V17H18.3189V4.39648H19.6725L22.8189 11.0938L25.9654 4.39648H27.3189V17H25.4293ZM30.508 10.6982C30.508 8.94629 31.132 7.44336 32.38 6.18945C33.6281 4.93555 35.1339 4.30859 36.8976 4.30859C38.6613 4.30859 40.1671 4.93262 41.4152 6.18066C42.6632 7.42871 43.2873 8.93457 43.2873 10.6982C43.2873 12.4619 42.6632 13.9678 41.4152 15.2158C40.1671 16.4639 38.6613 17.0879 36.8976 17.0879C35.1339 17.0879 33.6281 16.4639 32.38 15.2158C31.132 13.9678 30.508 12.4619 30.508 10.6982ZM40.4572 7.13867C39.4728 6.1543 38.2834 5.66211 36.8888 5.66211C35.5002 5.66211 34.3136 6.1543 33.3293 7.13867C32.3449 8.12305 31.8527 9.3125 31.8527 10.707C31.8527 12.0957 32.3449 13.2822 33.3293 14.2666C34.3136 15.251 35.5002 15.7432 36.8888 15.7432C38.2834 15.7432 39.4728 15.251 40.4572 14.2666C41.4416 13.2822 41.9338 12.0957 41.9338 10.707C41.9338 9.3125 41.4416 8.12305 40.4572 7.13867ZM35.0959 13.6514V7.34961H36.9855C37.5832 7.34961 38.0695 7.54004 38.4445 7.9209C38.8254 8.2959 39.0158 8.78516 39.0158 9.38867C39.0158 10.1094 38.758 10.6602 38.2423 11.041L39.13 13.6514H37.7062L36.9504 11.4189H36.4494V13.6514H35.0959ZM36.4494 8.70312V10.0742H36.9855C37.4425 10.0742 37.6711 9.8457 37.6711 9.38867C37.6711 8.93164 37.4425 8.70312 36.9855 8.70312H36.4494ZM51.1858 4.39648H52.5833L54.9651 13.4756L57.18 4.39648H58.1468L60.3616 13.4756L62.761 4.39648H64.1585L60.8274 17H59.843L57.6634 8.12305L55.5013 17H54.4993L51.1858 4.39648ZM66.1346 10.6982C66.1346 8.93457 66.7586 7.42871 68.0067 6.18066C69.2547 4.93262 70.7606 4.30859 72.5243 4.30859C74.2762 4.30859 75.7791 4.93262 77.0331 6.18066C78.287 7.42871 78.9139 8.93457 78.9139 10.6982C78.9139 12.4502 78.287 13.9531 77.0331 15.207C75.7791 16.4609 74.2762 17.0879 72.5243 17.0879C70.7606 17.0879 69.2547 16.4609 68.0067 15.207C66.7586 13.9531 66.1346 12.4502 66.1346 10.6982ZM68.9647 7.13867C67.9803 8.12305 67.4881 9.3125 67.4881 10.707C67.4881 12.0957 67.9803 13.2822 68.9647 14.2666C69.9549 15.251 71.1385 15.7432 72.5155 15.7432C73.8983 15.7432 75.0848 15.251 76.075 14.2666C77.0653 13.2822 77.5604 12.0957 77.5604 10.707C77.5604 9.3125 77.0653 8.12305 76.075 7.13867C75.0848 6.1543 73.8983 5.66211 72.5155 5.66211C71.1385 5.66211 69.9549 6.1543 68.9647 7.13867ZM73.5174 19.9707V18.6348H78.9139V19.9707H73.5174ZM88.4574 17L86.4008 12.2627C86.184 12.2979 85.9672 12.3184 85.7504 12.3242H83.7729V17H82.4281V4.39648H85.7504C86.8637 4.39648 87.8158 4.78613 88.6068 5.56543C89.4037 6.33887 89.8022 7.27051 89.8022 8.36035C89.8022 9.09277 89.6088 9.77246 89.2221 10.3994C88.8412 11.0205 88.3344 11.498 87.7016 11.832L89.9164 17H88.4574ZM87.6576 10.2061C88.1908 9.69629 88.4574 9.08105 88.4574 8.36035C88.4574 7.63965 88.1908 7.02441 87.6576 6.51465C87.1303 6.00488 86.4945 5.75 85.7504 5.75H83.7729V10.9707H85.7504C86.4945 10.9707 87.1303 10.7158 87.6576 10.2061ZM93.0615 17V4.39648H94.4062V17H93.0615ZM97.5615 4.39648H99.0556L96.0849 10.5049L99.2314 17H97.7373L94.5908 10.5049L97.5615 4.39648ZM107.404 16.0508C106.718 16.7422 105.883 17.0879 104.899 17.0879C103.915 17.0879 103.074 16.7334 102.376 16.0244C101.679 15.3096 101.331 14.4453 101.331 13.4316H102.684C102.684 14.0703 102.898 14.6152 103.326 15.0664C103.759 15.5176 104.284 15.7432 104.899 15.7432C105.497 15.7432 106.012 15.5264 106.446 15.0928C106.879 14.6592 107.096 14.1318 107.096 13.5107C107.096 13.165 106.976 12.8047 106.736 12.4297C106.496 12.0547 106.176 11.7471 105.778 11.5068L103.334 9.99512C102.877 9.70801 102.517 9.33008 102.253 8.86133C101.99 8.39258 101.858 7.89453 101.858 7.36719C101.858 6.51758 102.154 5.79687 102.746 5.20508C103.343 4.60742 104.067 4.30859 104.917 4.30859C105.754 4.30859 106.472 4.61035 107.07 5.21387C107.673 5.81152 107.975 6.5293 107.975 7.36719H106.63C106.63 6.91016 106.46 6.51172 106.121 6.17188C105.787 5.83203 105.385 5.66211 104.917 5.66211C104.448 5.66211 104.043 5.8291 103.704 6.16309C103.37 6.49707 103.203 6.89844 103.203 7.36719C103.203 8.01758 103.481 8.50977 104.038 8.84375L106.481 10.3555C107.043 10.7012 107.509 11.1582 107.878 11.7266C108.253 12.2891 108.441 12.8838 108.441 13.5107C108.441 14.5068 108.095 15.3535 107.404 16.0508Z" fill="white"/>
</svg>
