<svg width="38" height="39" viewBox="0 0 38 39" fill="none" xmlns="http://www.w3.org/2000/svg">
<path d="M4.50688 3.51987V0H13V32.435C13 34.2468 12.36 35.7966 11.0801 37.0845C9.80017 38.3615 8.27075 39 6.49186 39C4.72382 39 3.19983 38.3615 1.9199 37.0845C0.639967 35.7966 0 34.2468 0 32.435H3.49812C3.49812 33.2645 3.79099 33.9739 4.37672 34.5633C4.9733 35.1527 5.67835 35.4474 6.49186 35.4474C7.31623 35.4474 8.02128 35.1527 8.60701 34.5633C9.20359 33.9739 9.50188 33.2645 9.50188 32.435V3.51987H4.50688Z" fill="white"/>
<path d="M20.9217 17.1931C18.9677 15.2299 17.9907 12.8768 17.9907 10.1339C17.9907 7.39092 18.9677 5.03785 20.9217 3.07466C22.8758 1.11148 25.2334 0.129883 27.9947 0.129883C30.7377 0.129883 33.0907 1.11148 35.0539 3.07466C37.0171 5.03785 37.9987 7.39092 37.9987 10.1339C37.9987 12.8768 37.0171 15.2299 35.0539 17.1931C33.0907 19.1563 30.7377 20.1379 27.9947 20.1379C25.2334 20.1379 22.8758 19.1563 20.9217 17.1931ZM23.0134 5.16628C21.6373 6.54235 20.9493 8.19821 20.9493 10.1339C20.9493 12.0695 21.6373 13.73 23.0134 15.1152C24.3986 16.4913 26.0591 17.1793 27.9947 17.1793C29.9304 17.1793 31.5862 16.4913 32.9623 15.1152C34.3476 13.73 35.0402 12.0695 35.0402 10.1339C35.0402 8.19821 34.3476 6.54235 32.9623 5.16628C31.5862 3.78104 29.9304 3.08842 27.9947 3.08842C26.0591 3.08842 24.3986 3.78104 23.0134 5.16628Z" fill="white"/>
<path d="M32 25H38" stroke="white" stroke-width="2"/>
</svg>
