<svg width="67" height="40" viewBox="0 0 67 40" fill="none" xmlns="http://www.w3.org/2000/svg">
<g clip-path="url(#clip0_5_2)">
<path d="M9.328 37.68V35.824H9.904C10.5867 35.824 11.2373 35.6427 11.856 35.28C12.4747 34.9173 12.976 34.32 13.36 33.488C13.744 32.656 13.936 31.5253 13.936 30.096V10.8C13.936 10.224 13.8613 9.79733 13.712 9.52C13.5627 9.24266 13.36 9.06133 13.104 8.976C12.8693 8.89067 12.6027 8.848 12.304 8.848H10.96V7.152H22V8.848H20.656C20.3573 8.848 20.08 8.90133 19.824 9.008C19.568 9.09333 19.3653 9.28533 19.216 9.584C19.0667 9.86133 18.992 10.3093 18.992 10.928V30.064C18.992 31.5147 18.7573 32.7307 18.288 33.712C17.8187 34.6933 17.1787 35.472 16.368 36.048C15.5787 36.624 14.672 37.04 13.648 37.296C12.624 37.552 11.568 37.68 10.48 37.68H9.328ZM27.4227 30.256C26.6974 30.256 26.0788 30.0747 25.5668 29.712C25.0548 29.328 24.7988 28.656 24.7988 27.696C24.7988 26.7147 25.0548 26.0427 25.5668 25.68C26.0788 25.3173 26.6974 25.136 27.4227 25.136C28.1268 25.136 28.7348 25.3173 29.2468 25.68C29.7801 26.0427 30.0468 26.7147 30.0468 27.696C30.0468 28.656 29.7801 29.328 29.2468 29.712C28.7348 30.0747 28.1268 30.256 27.4227 30.256ZM33.021 30V28.304H34.365C34.685 28.304 34.9623 28.2613 35.197 28.176C35.453 28.0693 35.645 27.8667 35.773 27.568C35.9223 27.2693 35.997 26.8213 35.997 26.224V10.8C35.997 10.224 35.9223 9.79733 35.773 9.52C35.6237 9.24266 35.421 9.06133 35.165 8.976C34.9303 8.89067 34.6637 8.848 34.365 8.848H33.021V7.152H43.581C45.949 7.152 47.9757 7.568 49.661 8.4C51.3463 9.21067 52.637 10.4373 53.533 12.08C54.4503 13.7013 54.909 15.728 54.909 18.16C54.909 20.4853 54.4823 22.544 53.629 24.336C52.7757 26.1067 51.5063 27.4933 49.821 28.496C48.157 29.4987 46.077 30 43.581 30H33.021ZM42.845 28.016C44.317 28.016 45.5437 27.6213 46.525 26.832C47.5063 26.0427 48.2423 24.912 48.733 23.44C49.245 21.9467 49.501 20.176 49.501 18.128C49.501 16.1013 49.245 14.4267 48.733 13.104C48.2423 11.76 47.5063 10.7573 46.525 10.096C45.5437 9.43467 44.3277 9.104 42.877 9.104H41.053V28.016H42.845Z" fill="white"/>
</g>
<defs>
<clipPath id="clip0_5_2">
<rect width="67" height="40" fill="white"/>
</clipPath>
</defs>
</svg>
