<svg width="67" height="67" viewBox="0 0 67 67" fill="none" xmlns="http://www.w3.org/2000/svg">
<circle cx="33.5" cy="33.5" r="33.5" fill="#9F60DA"/>
<path d="M42.0425 17.48C42.6825 18.248 43.1305 18.8667 43.3865 19.336C43.6425 19.8053 43.7705 20.2533 43.7705 20.68C43.7705 21.192 43.4292 21.7893 42.7465 22.472C42.1065 23.1547 41.4665 23.496 40.8265 23.496C39.9732 23.496 39.2905 23.368 38.7785 23.112C38.2665 22.856 37.8398 22.4507 37.4985 21.896C36.8158 20.872 35.9838 19.9973 35.0025 19.272C34.0212 18.504 32.4852 18.12 30.3945 18.12C28.6025 18.12 26.5545 18.5253 24.2505 19.336C21.9892 20.1467 20.3678 21.1493 19.3865 22.344C18.5332 23.4107 17.7865 25.032 17.1465 27.208C16.5492 29.384 16.2505 31.496 16.2505 33.544C16.2505 36.0187 16.7838 38.3013 17.8505 40.392C18.9598 42.44 20.5385 44.0827 22.5865 45.32C24.6772 46.5573 27.1732 47.176 30.0745 47.176C31.6532 47.176 33.2745 46.8773 34.9385 46.28C36.6452 45.64 38.1172 44.616 39.3545 43.208H39.2905C40.0585 42.3973 41.0185 41.992 42.1705 41.992C42.8532 41.992 43.4932 42.2907 44.0905 42.888C44.7305 43.4853 45.0505 44.0827 45.0505 44.68C45.0505 45.32 44.9438 45.896 44.7305 46.408C44.5598 46.8773 44.2185 47.4107 43.7065 48.008C41.9572 49.9707 39.8878 51.3147 37.4985 52.04C35.1092 52.7653 32.2505 53.128 28.9225 53.128C25.9785 53.128 22.9918 52.424 19.9625 51.016C16.9758 49.608 14.6718 47.9013 13.0505 45.896C12.1972 44.6587 11.3652 42.888 10.5545 40.584C9.7865 38.2373 9.4025 36.3387 9.4025 34.888C9.4025 31.176 9.95717 27.656 11.0665 24.328C12.2185 20.9573 13.9252 18.2693 16.1865 16.264C17.6798 14.8987 19.8345 13.8747 22.6505 13.192C25.4665 12.5093 28.0478 12.168 30.3945 12.168C33.2532 12.168 35.4932 12.5733 37.1145 13.384C38.7785 14.152 40.4212 15.5173 42.0425 17.48ZM58.3355 49.48C58.3355 50.5467 57.9088 51.5493 57.0555 52.488C56.2022 53.384 55.2635 53.832 54.2395 53.832C53.0448 53.832 51.9568 53.512 50.9755 52.872C49.9942 52.1893 49.5035 51.336 49.5035 50.312C49.5035 48.6907 49.8022 47.496 50.3995 46.728C51.0395 45.96 51.9782 45.576 53.2155 45.576C54.6662 45.576 55.8822 45.9387 56.8635 46.664C57.8448 47.3467 58.3355 48.2853 58.3355 49.48Z" fill="white"/>
</svg>
