<svg width="67" height="67" viewBox="0 0 67 67" fill="none" xmlns="http://www.w3.org/2000/svg">
<circle cx="33.5" cy="33.5" r="33.5" fill="#9F60DA"/>
<path d="M39.9568 44.296C40.7674 44.296 41.3648 44.616 41.7488 45.256C42.1754 45.8533 42.3888 46.5147 42.3888 47.24C42.3888 48.136 42.2394 48.776 41.9408 49.16C41.6848 49.5013 41.1728 49.864 40.4048 50.248C38.6128 51.1013 36.3941 51.784 33.7488 52.296C31.1034 52.808 28.2661 53.064 25.2367 53.064C21.4394 53.064 18.6447 52.424 16.8527 51.144C15.1034 49.864 14.0154 48.328 13.5887 46.536C13.2047 44.7013 13.0127 42.312 13.0127 39.368C13.0127 36.2107 13.1407 33.1173 13.3967 30.088C13.6527 27.016 14.1007 23.112 14.7407 18.376C15.0394 16.328 15.8501 14.856 17.1727 13.96C18.4954 13.0213 19.9461 12.552 21.5247 12.552C22.8474 12.552 25.0021 12.5093 27.9888 12.424L33.5568 12.36C35.8608 12.36 37.5248 12.424 38.5487 12.552C39.8287 12.808 40.7674 13.1067 41.3647 13.448C42.0048 13.7467 42.3248 14.28 42.3248 15.048C42.3248 15.9013 42.0261 16.7333 41.4287 17.544C40.8741 18.3547 40.0208 18.76 38.8688 18.76C37.5461 18.76 35.6474 18.6747 33.1728 18.504C30.6981 18.3333 28.8421 18.248 27.6047 18.248C26.5381 18.248 25.4927 18.312 24.4688 18.44C23.2741 18.5253 22.4207 18.6747 21.9087 18.888C21.3967 19.1013 21.0981 19.464 21.0127 19.976C20.4154 24.3707 20.1167 27.6133 20.1167 29.704C21.0981 29.832 22.0581 29.896 22.9967 29.896C24.1914 29.896 25.4714 29.832 26.8368 29.704C28.2021 29.576 29.0768 29.4907 29.4608 29.448C31.7221 29.2347 33.6634 29.128 35.2847 29.128C36.2234 29.128 36.9274 29.2987 37.3968 29.64C37.9088 29.9813 38.1648 30.4507 38.1648 31.048C38.1648 31.9867 37.9088 32.712 37.3968 33.224C36.9274 33.736 36.0741 34.12 34.8368 34.376C33.3434 34.6747 31.4874 34.9093 29.2688 35.08C27.0927 35.2507 24.9594 35.336 22.8687 35.336C22.1434 35.336 21.1408 35.2933 19.8608 35.208C19.7327 37.8107 19.6687 40.2213 19.6687 42.44C19.6687 45.4693 21.6741 46.984 25.6847 46.984C27.8181 46.984 29.5888 46.8347 30.9967 46.536C32.4048 46.2373 34.0261 45.8107 35.8608 45.256C37.5674 44.616 38.9328 44.296 39.9568 44.296ZM55.4293 49.48C55.4293 50.5467 55.0026 51.5493 54.1493 52.488C53.2959 53.384 52.3573 53.832 51.3333 53.832C50.1386 53.832 49.0506 53.512 48.0693 52.872C47.0879 52.1893 46.5973 51.336 46.5973 50.312C46.5973 48.6907 46.8959 47.496 47.4933 46.728C48.1333 45.96 49.0719 45.576 50.3093 45.576C51.7599 45.576 52.9759 45.9387 53.9573 46.664C54.9386 47.3467 55.4293 48.2853 55.4293 49.48Z" fill="white"/>
</svg>
