<svg width="450" height="100" viewBox="0 0 450 100" fill="none" xmlns="http://www.w3.org/2000/svg">
<path d="M73.415 37.81C73.995 38.506 74.401 39.0667 74.633 39.492C74.865 39.9173 74.981 40.3233 74.981 40.71C74.981 41.174 74.6716 41.7153 74.053 42.334C73.473 42.9527 72.893 43.262 72.313 43.262C71.5396 43.262 70.921 43.146 70.457 42.914C69.993 42.682 69.6063 42.3147 69.297 41.812C68.6783 40.884 67.9243 40.0913 67.035 39.434C66.1456 38.738 64.7536 38.39 62.859 38.39C61.235 38.39 59.379 38.7573 57.291 39.492C55.2416 40.2267 53.7723 41.1353 52.883 42.218C52.1096 43.1847 51.433 44.654 50.853 46.626C50.3116 48.598 50.041 50.512 50.041 52.368C50.041 54.6107 50.5243 56.6793 51.491 58.574C52.4963 60.43 53.927 61.9187 55.783 63.04C57.6776 64.1613 59.9396 64.722 62.569 64.722C63.9996 64.722 65.469 64.4513 66.977 63.91C68.5236 63.33 69.8576 62.402 70.979 61.126H70.921C71.617 60.3913 72.487 60.024 73.531 60.024C74.1496 60.024 74.7296 60.2947 75.271 60.836C75.851 61.3773 76.141 61.9187 76.141 62.46C76.141 63.04 76.0443 63.562 75.851 64.026C75.6963 64.4513 75.387 64.9347 74.923 65.476C73.3376 67.2547 71.4623 68.4727 69.297 69.13C67.1316 69.7873 64.541 70.116 61.525 70.116C58.857 70.116 56.1503 69.478 53.405 68.202C50.6983 66.926 48.6103 65.3793 47.141 63.562C46.3676 62.4407 45.6136 60.836 44.879 58.748C44.183 56.6213 43.835 54.9007 43.835 53.586C43.835 50.222 44.3376 47.032 45.343 44.016C46.387 40.9613 47.9336 38.5253 49.983 36.708C51.3363 35.4707 53.289 34.5427 55.841 33.924C58.393 33.3053 60.7323 32.996 62.859 32.996C65.4496 32.996 67.4796 33.3633 68.949 34.098C70.457 34.794 71.9456 36.0313 73.415 37.81ZM107.726 51.382C108.036 51.9233 108.287 52.716 108.48 53.76C108.674 54.7653 108.77 55.674 108.77 56.486C108.77 57.994 108.442 60.14 107.784 62.924C105.116 67.796 101.172 70.232 95.9525 70.232C94.0192 70.232 92.0472 69.594 90.0365 68.318C88.0258 67.042 86.6338 65.5727 85.8605 63.91C84.8165 60.5847 84.2945 58.4773 84.2945 57.588C84.2945 56.0413 84.6232 54.398 85.2805 52.658C85.9765 50.918 86.8465 49.41 87.8905 48.134C88.5478 47.2447 89.7272 46.4907 91.4285 45.872C93.1298 45.2147 94.6765 44.886 96.0685 44.886C98.7752 44.886 101.076 45.408 102.97 46.452C104.865 47.4573 106.45 49.1007 107.726 51.382ZM102.68 60.72C102.874 60.2173 102.97 58.922 102.97 56.834C102.97 55.7127 102.758 54.6107 102.332 53.528C101.946 52.4453 101.366 51.5173 100.592 50.744C100.515 50.6667 100.302 50.5507 99.9545 50.396C99.6065 50.2027 99.1232 50.0287 98.5045 49.874C97.9245 49.6807 97.2478 49.584 96.4745 49.584C94.3092 49.584 92.7238 50.454 91.7185 52.194C90.7132 53.934 90.2105 55.906 90.2105 58.11C90.2105 58.4967 90.3072 59.2313 90.5005 60.314C90.7325 61.3967 90.9258 62.0733 91.0805 62.344C91.1965 62.6147 91.4865 63.0013 91.9505 63.504C92.4532 63.968 93.0525 64.3933 93.7485 64.78C94.4832 65.128 95.2372 65.302 96.0105 65.302C97.7505 65.302 99.1425 64.896 100.186 64.084C101.23 63.2333 102.062 62.112 102.68 60.72ZM141.06 33.692C141.06 34.0787 140.964 35.142 140.77 36.882C140.345 41.1353 140.132 45.4467 140.132 49.816C140.132 53.644 140.19 56.5633 140.306 58.574C140.422 60.5847 140.712 62.1313 141.176 63.214C141.64 64.258 142.356 64.78 143.322 64.78C145.178 64.78 146.106 65.3987 146.106 66.636C146.106 67.448 145.7 68.144 144.888 68.724C144.076 69.2653 143.187 69.536 142.22 69.536C141.06 69.536 139.978 69.2653 138.972 68.724C137.967 68.1827 137.174 67.3513 136.594 66.23C135.782 67.4287 134.603 68.3953 133.056 69.13C131.548 69.826 130.079 70.174 128.648 70.174C126.444 70.174 124.492 69.71 122.79 68.782C121.089 67.854 119.774 66.5973 118.846 65.012C117.918 63.388 117.454 61.6093 117.454 59.676C117.454 57.82 117.667 56.0413 118.092 54.34C118.556 52.6 119.175 51.1693 119.948 50.048C120.992 48.5787 122.384 47.4187 124.124 46.568C125.903 45.6787 127.643 45.234 129.344 45.234C130.388 45.234 131.374 45.4467 132.302 45.872C133.23 46.2587 134.042 46.742 134.738 47.322C134.738 44.7313 134.719 43.1073 134.68 42.45V41.232C134.68 37.636 134.912 35.0067 135.376 33.344C135.802 31.72 136.826 30.908 138.45 30.908C139.34 30.908 139.997 31.1013 140.422 31.488C140.848 31.8747 141.06 32.6093 141.06 33.692ZM123.196 59.56C123.196 61.3387 123.699 62.7693 124.704 63.852C125.748 64.9347 126.986 65.476 128.416 65.476C130.466 65.476 131.974 64.838 132.94 63.562C133.946 62.286 134.448 60.6427 134.448 58.632L134.39 52.89C132.882 51.2273 131.316 50.396 129.692 50.396C128.571 50.396 127.508 50.686 126.502 51.266C125.536 51.8073 124.762 52.6387 124.182 53.76C123.525 55.036 123.196 56.9693 123.196 59.56ZM152.82 56.718C152.82 54.3593 153.342 52.4067 154.386 50.86C155.43 49.2747 156.88 47.786 158.736 46.394C159.277 46.0073 160.186 45.6787 161.462 45.408C162.738 45.0987 163.859 44.944 164.826 44.944C165.986 44.944 167.204 45.1953 168.48 45.698C169.795 46.162 170.858 46.7033 171.67 47.322C173.101 48.366 174.087 49.584 174.628 50.976C175.169 52.3293 175.44 53.9533 175.44 55.848C175.44 56.66 174.976 57.4527 174.048 58.226C173.159 58.9607 172.192 59.328 171.148 59.328L168.944 59.27C167.823 59.27 166.218 59.3087 164.13 59.386L162.912 59.444C162.061 59.5213 161.423 59.56 160.998 59.56C160.379 59.56 159.529 59.4827 158.446 59.328C158.601 61.1453 159.277 62.576 160.476 63.62C161.675 64.6253 162.97 65.128 164.362 65.128C166.798 65.128 168.499 64.6447 169.466 63.678C170.278 63.098 170.819 62.7307 171.09 62.576C171.361 62.4213 171.786 62.344 172.366 62.344C172.985 62.344 173.526 62.634 173.99 63.214C174.454 63.794 174.686 64.374 174.686 64.954C174.686 65.6113 174.28 66.288 173.468 66.984C172.695 67.6413 171.631 68.3373 170.278 69.072C169.543 69.3813 168.538 69.652 167.262 69.884C165.986 70.116 164.923 70.232 164.072 70.232C162.719 70.232 161.211 69.8453 159.548 69.072C157.885 68.26 156.648 67.3707 155.836 66.404C155.024 65.4373 154.309 64.0647 153.69 62.286C153.11 60.5073 152.82 58.6513 152.82 56.718ZM164.362 55.152C167.107 55.152 169.118 55.0553 170.394 54.862C170.317 53.7407 169.969 52.832 169.35 52.136C168.731 51.4013 167.881 50.7827 166.798 50.28C166.45 50.1253 166.141 50.0093 165.87 49.932C165.599 49.8547 165.29 49.816 164.942 49.816C163.163 49.816 161.655 50.2993 160.418 51.266C159.219 52.2327 158.504 53.47 158.272 54.978C160.205 55.094 162.235 55.152 164.362 55.152ZM181.971 36.186C181.971 34.5233 183.189 33.692 185.625 33.692C186.669 33.692 188.661 33.7307 191.599 33.808C194.847 33.9627 197.303 34.04 198.965 34.04C200.319 34.04 201.962 33.9627 203.895 33.808C205.21 33.7307 206.041 33.692 206.389 33.692C208.516 33.7693 210.314 34.156 211.783 34.852C212.209 35.0453 212.557 35.2773 212.827 35.548C213.098 35.8187 213.233 36.2633 213.233 36.882C213.233 37.7327 212.963 38.4673 212.421 39.086C211.88 39.666 211.223 39.956 210.449 39.956C209.599 39.956 208.361 39.84 206.737 39.608C205.307 39.3373 204.05 39.202 202.967 39.202C201.923 39.202 201.131 39.2213 200.589 39.26C200.473 40.536 200.415 43.5907 200.415 48.424C200.415 54.1853 200.589 60.024 200.937 65.94L201.053 67.622C201.053 69.2073 200.145 70 198.327 70C196.897 70 195.93 69.6713 195.427 69.014C194.925 68.318 194.673 67.274 194.673 65.882C194.673 63.1367 194.596 59.7147 194.441 55.616C194.287 52.2133 194.209 49.7967 194.209 48.366C194.209 47.3993 194.325 44.4413 194.557 39.492L187.771 39.55C185.606 39.55 184.098 39.3567 183.247 38.97C182.397 38.5447 181.971 37.6167 181.971 36.186ZM244.063 70.174C241.163 70.174 239.211 69.0527 238.205 66.81C237.703 65.6887 237.374 64.2387 237.219 62.46C237.065 60.6427 236.987 58.516 236.987 56.08V54.282C236.987 51.498 236.059 50.106 234.203 50.106C233.121 50.106 232.038 50.6667 230.955 51.788C229.873 52.8707 228.964 54.3207 228.229 56.138C227.533 57.9167 227.185 59.7727 227.185 61.706C227.185 62.982 227.243 64.142 227.359 65.186C227.437 66.5007 227.475 67.506 227.475 68.202C227.475 69.5167 226.567 70.174 224.749 70.174C223.86 70.174 223.067 69.9807 222.371 69.594C221.714 69.2073 221.385 68.7047 221.385 68.086C221.54 66.114 221.617 63.678 221.617 60.778L221.559 53.122C221.559 51.8847 221.463 47.3027 221.269 39.376L221.095 34.04C221.095 33.1893 221.482 32.4547 222.255 31.836C223.029 31.1787 223.899 30.85 224.865 30.85C225.716 30.85 226.335 31.0433 226.721 31.43C227.108 31.8167 227.301 32.416 227.301 33.228C227.301 34.2333 227.282 35.4127 227.243 36.766C227.205 38.0807 227.166 39.086 227.127 39.782C227.011 41.754 226.953 43.726 226.953 45.698C226.953 47.6313 226.915 49.1587 226.837 50.28C227.997 48.5787 229.312 47.322 230.781 46.51C232.289 45.6593 234.049 45.234 236.059 45.234C237.529 45.234 238.882 45.8913 240.119 47.206C241.395 48.482 242.169 49.9513 242.439 51.614C242.517 52.4647 242.555 53.7213 242.555 55.384L242.497 59.618C242.497 60.2753 242.536 61.3 242.613 62.692C242.652 63.3493 242.865 64.0453 243.251 64.78C243.677 65.5147 244.16 66.056 244.701 66.404C245.204 66.7133 245.533 67.0227 245.687 67.332C245.842 67.6413 245.919 67.9893 245.919 68.376C245.919 68.7627 245.745 69.1687 245.397 69.594C245.049 69.9807 244.605 70.174 244.063 70.174ZM279.834 67.216C279.834 68.0667 279.37 68.782 278.442 69.362C277.514 69.942 276.664 70.232 275.89 70.232C274.46 70.232 273.3 70.058 272.41 69.71C271.56 69.3233 270.748 68.6273 269.974 67.622C269.008 68.5113 267.654 69.188 265.914 69.652C264.174 70.0773 262.57 70.29 261.1 70.29C258.703 70.29 256.712 69.652 255.126 68.376C253.58 67.0613 252.806 65.1473 252.806 62.634C252.806 61.5513 253.135 60.4687 253.792 59.386C254.45 58.2647 255.262 57.3753 256.228 56.718C257.272 56.022 258.452 55.558 259.766 55.326C261.081 55.0553 262.608 54.92 264.348 54.92C265.16 54.92 266.127 55.0747 267.248 55.384C268.37 55.6933 269.259 56.022 269.916 56.37V55.442C269.916 53.354 269.394 51.9233 268.35 51.15C267.345 50.338 265.721 49.932 263.478 49.932C262.782 49.932 262.144 50.048 261.564 50.28C261.023 50.4733 260.385 50.7633 259.65 51.15C258.954 51.5367 258.297 51.73 257.678 51.73C257.137 51.73 256.615 51.5173 256.112 51.092C255.61 50.628 255.358 50.1447 255.358 49.642C255.358 48.018 256.364 46.8387 258.374 46.104C260.424 45.3307 262.512 44.944 264.638 44.944C265.721 44.944 266.958 45.176 268.35 45.64C269.742 46.0653 270.922 46.6647 271.888 47.438C273.048 48.4047 273.938 49.5647 274.556 50.918C275.214 52.2713 275.542 53.7407 275.542 55.326C275.542 55.8287 275.504 56.5827 275.426 57.588C275.349 58.6707 275.31 59.5987 275.31 60.372L275.252 61.938C275.175 62.7887 275.136 63.4653 275.136 63.968C275.136 64.432 275.291 64.838 275.6 65.186C275.948 65.4953 276.354 65.65 276.818 65.65L278.442 65.592C278.868 65.592 279.196 65.766 279.428 66.114C279.699 66.4233 279.834 66.7907 279.834 67.216ZM261.1 65.708C262.763 65.708 264.155 65.534 265.276 65.186C266.398 64.838 267.751 64.2 269.336 63.272C269.491 62.6147 269.588 61.7447 269.626 60.662C267.5 59.6567 265.74 59.154 264.348 59.154C263.034 59.154 261.97 59.212 261.158 59.328C260.346 59.4053 259.612 59.734 258.954 60.314C258.297 60.894 257.968 61.822 257.968 63.098C257.968 63.8327 258.316 64.4513 259.012 64.954C259.747 65.4567 260.443 65.708 261.1 65.708ZM287.174 49.932C286.633 49.8547 286.188 49.6227 285.84 49.236C285.531 48.8493 285.376 48.3853 285.376 47.844C285.376 47.5733 285.434 47.2833 285.55 46.974C285.705 46.6647 285.918 46.394 286.188 46.162C286.691 45.7367 287.368 45.3307 288.218 44.944C289.108 44.596 289.746 44.1707 290.132 43.668C290.519 43.1653 290.712 42.218 290.712 40.826C290.712 40.246 290.674 39.7433 290.596 39.318C290.558 38.8927 290.538 38.564 290.538 38.332C290.538 37.4813 290.848 36.8433 291.466 36.418C292.085 35.9927 292.8 35.78 293.612 35.78C294.618 35.78 295.294 36.0313 295.642 36.534C296.029 37.0367 296.222 37.9647 296.222 39.318C296.222 40.6327 296.164 41.7733 296.048 42.74C295.932 43.668 295.681 44.4993 295.294 45.234C295.836 45.234 296.725 45.1953 297.962 45.118C299.664 45.0407 300.843 45.002 301.5 45.002C302.158 45.002 302.738 45.176 303.24 45.524C303.743 45.8333 303.994 46.278 303.994 46.858C303.994 47.67 303.82 48.2693 303.472 48.656C303.124 49.0427 302.622 49.294 301.964 49.41C300.379 49.8353 298.136 50.0867 295.236 50.164C295.159 51.672 295.12 53.3153 295.12 55.094C295.12 58.0713 295.294 60.3527 295.642 61.938C295.874 63.1753 296.261 64.084 296.802 64.664C297.382 65.2053 298.233 65.476 299.354 65.476C299.934 65.476 300.398 65.3987 300.746 65.244C301.133 65.0893 301.346 64.9927 301.384 64.954C301.848 64.6833 302.274 64.548 302.66 64.548C303.202 64.548 303.588 64.722 303.82 65.07C304.091 65.418 304.226 65.882 304.226 66.462C304.226 67.5447 303.646 68.4533 302.486 69.188C301.326 69.884 299.838 70.232 298.02 70.232C295.971 70.232 294.231 69.6327 292.8 68.434C291.408 67.1967 290.577 65.5727 290.306 63.562C289.92 61.7447 289.726 59.1927 289.726 55.906C289.726 54.4753 289.804 52.5613 289.958 50.164L287.174 49.932ZM341.113 40.246C342.389 41.754 343.433 43.4553 344.245 45.35C345.096 47.2447 345.521 49.526 345.521 52.194C345.521 54.166 345.057 56.2347 344.129 58.4C343.24 60.5267 342.08 62.2473 340.649 63.562C339.18 64.9927 337.73 66.1527 336.299 67.042C334.907 67.9313 333.032 68.666 330.673 69.246C328.314 69.7873 325.298 70.058 321.625 70.058C319.228 70.058 317.468 69.652 316.347 68.84C315.264 68.028 314.723 66.81 314.723 65.186C314.723 64.1033 314.878 62.286 315.187 59.734C315.496 57.2593 315.651 55.558 315.651 54.63C315.651 50.9567 315.593 47.8633 315.477 45.35C315.4 42.798 315.303 40.4587 315.187 38.332C314.104 38.332 313.35 38.0613 312.925 37.52C312.5 36.9787 312.287 36.418 312.287 35.838C312.287 34.91 312.732 34.214 313.621 33.75C314.51 33.2473 316.038 32.996 318.203 32.996C323.423 32.996 327.908 33.4793 331.659 34.446C335.448 35.4127 338.6 37.346 341.113 40.246ZM320.639 64.606C321.567 64.7607 322.882 64.838 324.583 64.838C327.096 64.838 329.494 64.316 331.775 63.272C334.056 62.1893 335.893 60.7007 337.285 58.806C338.677 56.8727 339.373 54.6493 339.373 52.136C339.373 49.5067 338.909 47.264 337.981 45.408C337.092 43.552 335.661 42.0247 333.689 40.826C332.297 39.9367 330.576 39.2987 328.527 38.912C326.478 38.4867 323.984 38.274 321.045 38.274C321.045 40.6327 321.084 42.6047 321.161 44.19L321.277 45.988C321.432 49.3133 321.509 51.8073 321.509 53.47C321.509 55.0553 321.412 56.9307 321.219 59.096C321.064 61.2613 320.871 63.098 320.639 64.606ZM353.707 57.704C353.707 56.2347 353.977 54.7653 354.519 53.296C355.06 51.788 355.775 50.4153 356.665 49.178C357.554 47.9407 358.965 46.9353 360.899 46.162C362.832 45.35 364.553 44.944 366.061 44.944C367.607 44.944 369.173 45.1567 370.759 45.582C372.383 46.0073 373.504 46.6647 374.123 47.554C375.553 49.5647 376.269 51.5367 376.269 53.47C376.269 54.514 376.037 55.4033 375.573 56.138C375.147 56.8727 374.529 57.6653 373.717 58.516C373.059 59.212 372.015 59.676 370.585 59.908C369.193 60.14 367.801 60.256 366.409 60.256C365.519 60.256 364.437 60.1787 363.161 60.024C361.885 59.8307 360.647 59.5987 359.449 59.328C359.526 60.1013 359.719 60.8553 360.029 61.59C360.338 62.3247 360.705 62.8853 361.131 63.272C361.904 64.0067 362.697 64.4707 363.509 64.664C364.359 64.8573 365.442 64.954 366.757 64.954C368.149 64.954 369.444 64.722 370.643 64.258C371.609 63.91 372.402 63.736 373.021 63.736C373.755 63.736 374.316 63.968 374.703 64.432C375.089 64.8573 375.283 65.418 375.283 66.114C375.283 67.0807 374.722 67.8733 373.601 68.492C372.479 69.1107 371.184 69.5747 369.715 69.884C368.284 70.1547 367.124 70.29 366.235 70.29C364.417 70.29 362.658 69.9613 360.957 69.304C359.255 68.6467 357.844 67.7187 356.723 66.52C355.795 65.4373 355.06 64.142 354.519 62.634C353.977 61.0873 353.707 59.444 353.707 57.704ZM366.351 49.874C365.5 49.874 364.649 50.048 363.799 50.396C362.948 50.7053 362.252 51.15 361.711 51.73C361.015 52.4647 360.531 53.064 360.261 53.528C360.029 53.9533 359.874 54.5527 359.797 55.326C360.763 55.6353 362.774 55.79 365.829 55.79C367.491 55.79 368.767 55.5387 369.657 55.036C370.585 54.5333 371.049 53.876 371.049 53.064C371.049 52.252 370.546 51.5173 369.541 50.86C368.535 50.2027 367.472 49.874 366.351 49.874ZM398.747 55.094C398.863 54.7847 399.269 53.6633 399.965 51.73C400.7 49.7967 401.377 48.3273 401.995 47.322C403.001 45.7367 403.89 44.944 404.663 44.944C405.746 44.944 406.577 45.1567 407.157 45.582C407.737 45.9687 408.027 46.5293 408.027 47.264C408.027 47.612 407.873 48.0953 407.563 48.714C407.293 49.3327 407.138 49.7 407.099 49.816C405.553 53.2187 404.161 56.8727 402.923 60.778L401.705 65.302C401.241 66.7713 400.449 67.97 399.327 68.898C398.206 69.7873 396.891 70.232 395.383 70.232C394.03 70.232 392.773 69.6133 391.613 68.376C390.917 67.2933 390.183 65.9207 389.409 64.258C388.675 62.5953 388.037 60.9713 387.495 59.386L385.465 53.296C385.04 52.0973 384.692 51.0727 384.421 50.222C384.189 49.3713 384.073 48.598 384.073 47.902C384.035 47.09 384.267 46.4327 384.769 45.93C385.272 45.4273 385.968 45.176 386.857 45.176C387.863 45.176 388.578 45.3887 389.003 45.814C389.429 46.2007 389.815 46.8193 390.163 47.67C390.318 48.5593 390.743 50.3767 391.439 53.122L391.845 54.746C392.193 56.0607 392.638 57.3947 393.179 58.748C393.721 60.1013 394.262 61.3967 394.803 62.634C394.726 62.4407 394.997 63.0787 395.615 64.548C396.002 63.4267 396.447 62.054 396.949 60.43L398.747 55.094Z" fill="white"/>
</svg>
