<svg width="450" height="100" viewBox="0 0 450 100" fill="none" xmlns="http://www.w3.org/2000/svg">
<rect width="450" height="100" rx="50" fill="#9F60DA"/>
<path d="M66.7105 63.796C67.5212 63.796 68.1185 64.116 68.5025 64.756C68.9292 65.3533 69.1425 66.0147 69.1425 66.74C69.1425 67.636 68.9932 68.276 68.6945 68.66C68.4385 69.0013 67.9265 69.364 67.1585 69.748C65.3665 70.6013 63.1478 71.284 60.5025 71.796C57.8572 72.308 55.0198 72.564 51.9905 72.564C48.1932 72.564 45.3985 71.924 43.6065 70.644C41.8572 69.364 40.7692 67.828 40.3425 66.036C39.9585 64.2013 39.7665 61.812 39.7665 58.868C39.7665 55.7107 39.8945 52.6173 40.1505 49.588C40.4065 46.516 40.8545 42.612 41.4945 37.876C41.7932 35.828 42.6038 34.356 43.9265 33.46C45.2492 32.5213 46.6998 32.052 48.2785 32.052C49.6012 32.052 51.7558 32.0093 54.7425 31.924L60.3105 31.86C62.6145 31.86 64.2785 31.924 65.3025 32.052C66.5825 32.308 67.5212 32.6067 68.1185 32.948C68.7585 33.2467 69.0785 33.78 69.0785 34.548C69.0785 35.4013 68.7798 36.2333 68.1825 37.044C67.6278 37.8547 66.7745 38.26 65.6225 38.26C64.2998 38.26 62.4012 38.1747 59.9265 38.004C57.4518 37.8333 55.5958 37.748 54.3585 37.748C53.2918 37.748 52.2465 37.812 51.2225 37.94C50.0278 38.0253 49.1745 38.1747 48.6625 38.388C48.1505 38.6013 47.8518 38.964 47.7665 39.476C47.1692 43.8707 46.8705 47.1133 46.8705 49.204C47.8518 49.332 48.8118 49.396 49.7505 49.396C50.9452 49.396 52.2252 49.332 53.5905 49.204C54.9558 49.076 55.8305 48.9907 56.2145 48.948C58.4758 48.7347 60.4172 48.628 62.0385 48.628C62.9772 48.628 63.6812 48.7987 64.1505 49.14C64.6625 49.4813 64.9185 49.9507 64.9185 50.548C64.9185 51.4867 64.6625 52.212 64.1505 52.724C63.6812 53.236 62.8278 53.62 61.5905 53.876C60.0972 54.1747 58.2412 54.4093 56.0225 54.58C53.8465 54.7507 51.7132 54.836 49.6225 54.836C48.8972 54.836 47.8945 54.7933 46.6145 54.708C46.4865 57.3107 46.4225 59.7213 46.4225 61.94C46.4225 64.9693 48.4278 66.484 52.4385 66.484C54.5718 66.484 56.3425 66.3347 57.7505 66.036C59.1585 65.7373 60.7798 65.3107 62.6145 64.756C64.3212 64.116 65.6865 63.796 66.7105 63.796ZM107.527 69.428C107.527 70.3667 107.015 71.156 105.991 71.796C105.01 72.436 104.092 72.756 103.239 72.756C101.618 72.756 100.316 72.564 99.335 72.18C98.3963 71.7533 97.5217 70.9853 96.711 69.876C95.6017 70.8573 94.087 71.604 92.167 72.116C90.247 72.5853 88.4763 72.82 86.855 72.82C84.2097 72.82 82.0337 72.116 80.327 70.708C78.6203 69.2573 77.767 67.1453 77.767 64.372C77.767 63.1773 78.087 62.0893 78.727 61.108C79.367 60.084 80.2417 59.188 81.351 58.42C82.5883 57.6093 83.9963 56.9907 85.575 56.564C87.1537 56.0947 88.7963 55.86 90.503 55.86C91.399 55.86 92.4657 56.0307 93.703 56.372C94.9403 56.7133 95.9003 57.076 96.583 57.46V56.436C96.583 54.132 96.0283 52.5533 94.919 51.7C93.8097 50.804 92.0177 50.356 89.543 50.356C88.8177 50.356 88.0923 50.5053 87.367 50.804C86.6843 51.1027 85.895 51.508 84.999 52.02C83.8043 52.66 82.6737 52.98 81.607 52.98C81.223 52.98 80.8603 52.724 80.519 52.212C80.1777 51.6573 80.007 51.1667 80.007 50.74C80.007 49.5027 80.583 48.436 81.735 47.54C82.9297 46.644 84.3377 45.9827 85.959 45.556C87.5803 45.0867 89.031 44.852 90.311 44.852C91.591 44.852 93.063 45.108 94.727 45.62C96.391 46.0893 97.7563 46.7507 98.823 47.604C100.103 48.7133 101.084 50.0147 101.767 51.508C102.492 52.9587 102.855 54.5587 102.855 56.308C102.855 56.8627 102.812 57.6947 102.727 58.804C102.642 59.9987 102.599 61.0227 102.599 61.876C102.599 62.26 102.556 62.836 102.471 63.604C102.386 64.5427 102.343 65.2893 102.343 65.844C102.343 66.356 102.535 66.804 102.919 67.188C103.303 67.5293 103.751 67.7 104.263 67.7L106.055 67.636C106.524 67.636 106.887 67.8067 107.143 68.148C107.399 68.4893 107.527 68.916 107.527 69.428ZM86.919 67.764C88.7537 67.764 90.2897 67.572 91.527 67.188C92.7643 66.804 94.2577 66.1 96.007 65.076C96.1777 64.3507 96.2843 63.3907 96.327 62.196C93.9803 61.0867 92.039 60.532 90.503 60.532C88.7537 60.532 87.1963 60.852 85.831 61.492C84.4657 62.132 83.783 63.2627 83.783 64.884C83.783 65.6947 84.1243 66.3773 84.807 66.932C85.4897 67.4867 86.1937 67.764 86.919 67.764ZM133.542 58.1C133.883 58.3133 134.545 58.7187 135.526 59.316C136.55 59.8707 137.233 60.532 137.574 61.3C137.915 62.068 138.086 63.1347 138.086 64.5C138.086 66.036 137.638 67.4013 136.742 68.596C135.846 69.748 134.694 70.644 133.286 71.284C132.262 71.7533 131.003 72.116 129.51 72.372C128.059 72.628 126.907 72.756 126.054 72.756C125.201 72.756 124.091 72.628 122.726 72.372C121.403 72.116 120.486 71.8813 119.974 71.668C118.651 70.9 117.499 69.9613 116.518 68.852C115.579 67.7427 115.11 66.612 115.11 65.46C115.11 64.6067 115.387 63.9453 115.942 63.476C116.497 62.964 117.222 62.708 118.118 62.708C118.545 62.708 118.993 62.8787 119.462 63.22C119.931 63.5187 120.251 63.8387 120.422 64.18C120.891 65.2893 121.681 66.1213 122.79 66.676C123.899 67.2307 125.03 67.508 126.182 67.508C127.675 67.508 129.062 67.2733 130.342 66.804C131.622 66.292 132.262 65.6093 132.262 64.756C132.262 64.372 132.155 64.0733 131.942 63.86C131.771 63.604 131.515 63.348 131.174 63.092C130.577 62.6653 129.681 62.324 128.486 62.068C127.291 61.7693 126.523 61.5773 126.182 61.492C124.433 61.108 122.726 60.532 121.062 59.764C119.398 58.9533 118.075 57.9933 117.094 56.884C116.113 55.7747 115.622 54.3453 115.622 52.596C115.622 51.444 116.049 50.2493 116.902 49.012C117.755 47.732 118.715 46.836 119.782 46.324C120.55 46.0253 121.83 45.7053 123.622 45.364C125.457 45.0227 126.694 44.852 127.334 44.852C128.315 44.852 129.382 44.9587 130.534 45.172C131.686 45.3427 132.561 45.6413 133.158 46.068C134.31 46.7507 135.249 47.476 135.974 48.244C136.699 48.9693 137.062 49.8013 137.062 50.74C137.062 51.2093 136.955 51.7213 136.742 52.276C136.529 52.788 136.273 53.108 135.974 53.236C135.334 53.5347 134.587 53.684 133.734 53.684C133.35 53.684 133.03 53.5773 132.774 53.364C132.561 53.1507 132.262 52.8093 131.878 52.34C131.409 51.6147 130.961 51.188 130.534 51.06C130.022 50.932 129.275 50.7827 128.294 50.612C127.313 50.3987 126.651 50.292 126.31 50.292C125.329 50.292 124.305 50.5693 123.238 51.124C122.214 51.6787 121.702 52.3187 121.702 53.044C121.702 53.428 121.851 53.7267 122.15 53.94C122.491 54.1533 122.833 54.3453 123.174 54.516C123.558 54.6867 123.814 54.7933 123.942 54.836C124.838 55.2627 125.819 55.6253 126.886 55.924C127.995 56.2227 128.678 56.4147 128.934 56.5C131.238 57.0547 132.774 57.588 133.542 58.1ZM147.962 50.228C147.365 50.1427 146.874 49.908 146.49 49.524C146.149 49.0973 145.978 48.5853 145.978 47.988C145.978 47.22 146.277 46.58 146.874 46.068C147.002 45.94 147.215 45.8333 147.514 45.748C147.813 45.62 148.047 45.5133 148.218 45.428C149.157 45.1293 149.754 44.8947 150.01 44.724C150.991 44.1267 151.653 43.1453 151.994 41.78C152.335 40.1587 152.549 39.0493 152.634 38.452C152.719 37.5133 153.018 36.8093 153.53 36.34C154.085 35.828 154.767 35.572 155.578 35.572C156.645 35.572 157.391 35.8493 157.818 36.404C158.245 36.9587 158.458 37.9827 158.458 39.476C158.458 41.4387 157.989 43.2947 157.05 45.044C157.647 45.044 158.629 45.0013 159.994 44.916C162.042 44.8307 163.471 44.788 164.282 44.788C165.007 44.788 165.626 44.98 166.138 45.364C166.693 45.7053 166.97 46.2173 166.97 46.9C166.97 48.5213 166.223 49.4813 164.73 49.78C163.365 50.164 160.89 50.3987 157.306 50.484C157.007 54.6653 156.858 57.972 156.858 60.404C156.858 61.8973 156.922 62.964 157.05 63.604C157.306 64.9267 157.733 65.908 158.33 66.548C158.97 67.1453 159.909 67.444 161.146 67.444C161.743 67.444 162.639 67.2947 163.834 66.996C164.559 66.7827 165.135 66.676 165.562 66.676C166.117 66.676 166.543 66.868 166.842 67.252C167.141 67.636 167.29 68.148 167.29 68.788C167.29 69.94 166.543 70.9 165.05 71.668C163.557 72.3933 161.786 72.756 159.738 72.756C158.458 72.756 157.199 72.4573 155.962 71.86C154.725 71.22 153.679 70.452 152.826 69.556C152.655 69.4707 152.399 69.0013 152.058 68.148C151.759 67.2947 151.461 66.356 151.162 65.332C151.034 64.82 150.97 63.5827 150.97 61.62C150.97 59.7427 151.098 56.5 151.354 51.892L151.418 50.484C151.119 50.484 150.565 50.4627 149.754 50.42C148.943 50.3347 148.346 50.2707 147.962 50.228ZM175.1 57.844C175.1 55.2413 175.676 53.0867 176.828 51.38C177.98 49.6307 179.58 47.988 181.628 46.452C182.225 46.0253 183.228 45.6627 184.636 45.364C186.044 45.0227 187.281 44.852 188.348 44.852C189.628 44.852 190.972 45.1293 192.38 45.684C193.83 46.196 195.004 46.7933 195.9 47.476C197.478 48.628 198.566 49.972 199.164 51.508C199.761 53.0013 200.06 54.7933 200.06 56.884C200.06 57.78 199.548 58.6547 198.524 59.508C197.542 60.3187 196.476 60.724 195.324 60.724L192.892 60.66C191.654 60.66 189.884 60.7027 187.58 60.788L186.236 60.852C185.297 60.9373 184.593 60.98 184.124 60.98C183.441 60.98 182.502 60.8947 181.308 60.724C181.478 62.7293 182.225 64.308 183.548 65.46C184.87 66.5693 186.3 67.124 187.836 67.124C190.524 67.124 192.401 66.5907 193.468 65.524C194.364 64.884 194.961 64.4787 195.26 64.308C195.558 64.1373 196.028 64.052 196.668 64.052C197.35 64.052 197.948 64.372 198.46 65.012C198.972 65.652 199.228 66.292 199.228 66.932C199.228 67.6573 198.78 68.404 197.884 69.172C197.03 69.8973 195.857 70.6653 194.364 71.476C193.553 71.8173 192.444 72.116 191.036 72.372C189.628 72.628 188.454 72.756 187.516 72.756C186.022 72.756 184.358 72.3293 182.524 71.476C180.689 70.58 179.324 69.5987 178.428 68.532C177.532 67.4653 176.742 65.9507 176.06 63.988C175.42 62.0253 175.1 59.9773 175.1 57.844ZM187.836 56.116C190.865 56.116 193.084 56.0093 194.492 55.796C194.406 54.5587 194.022 53.556 193.34 52.788C192.657 51.9773 191.718 51.2947 190.524 50.74C190.14 50.5693 189.798 50.4413 189.5 50.356C189.201 50.2707 188.86 50.228 188.476 50.228C186.513 50.228 184.849 50.7613 183.484 51.828C182.161 52.8947 181.372 54.26 181.116 55.924C183.249 56.052 185.489 56.116 187.836 56.116ZM218.851 69.94C218.765 70.6653 218.467 71.3053 217.955 71.86C217.443 72.4147 216.781 72.692 215.97 72.692C214.691 72.692 213.752 72.4573 213.155 71.988C212.557 71.476 212.259 70.5587 212.259 69.236C212.259 67.444 212.365 65.4813 212.579 63.348C212.749 60.8733 212.835 58.9747 212.835 57.652C212.835 56.9693 212.792 56.116 212.707 55.092C212.621 54.1533 212.579 53.4493 212.579 52.98C212.451 52.2547 212.152 51.6787 211.683 51.252C211.256 50.8253 210.573 50.4627 209.635 50.164C209.251 49.9933 208.931 49.716 208.674 49.332C208.419 48.9053 208.291 48.5213 208.291 48.18C208.291 47.1987 208.675 46.452 209.443 45.94C210.211 45.428 211.149 45.172 212.259 45.172C213.496 45.172 214.563 45.5987 215.459 46.452C216.355 47.3053 217.037 48.372 217.507 49.652C218.488 48.244 219.683 47.1133 221.091 46.26C222.541 45.4067 223.949 44.98 225.315 44.98C227.064 44.98 228.536 45.2787 229.731 45.876C230.968 46.4307 231.587 47.412 231.587 48.82C231.587 49.6307 231.224 50.484 230.499 51.38C229.816 52.2333 229.112 52.66 228.387 52.66C227.832 52.66 227.171 52.404 226.403 51.892C226.104 51.6787 225.763 51.508 225.378 51.38C225.037 51.2093 224.675 51.124 224.291 51.124C223.608 51.124 222.968 51.2307 222.371 51.444C221.773 51.6573 221.368 51.9133 221.155 52.212C220.472 53.2787 219.96 54.2387 219.619 55.092C219.32 55.9453 219.171 56.8627 219.171 57.844C219.171 58.5693 219.149 59.1453 219.107 59.572L219.043 63.22L219.107 65.652C219.107 67.444 219.021 68.8733 218.851 69.94ZM268.416 67.572C268.629 67.6573 268.971 67.764 269.44 67.892C269.909 68.02 270.251 68.148 270.464 68.276C270.677 68.404 270.784 68.596 270.784 68.852C270.827 69.876 270.443 70.7293 269.632 71.412C268.864 72.052 267.947 72.372 266.88 72.372C265.216 72.372 263.915 71.924 262.976 71.028C262.037 70.132 261.355 68.7667 260.928 66.932C260.757 66.2067 260.672 65.204 260.672 63.924C260.672 63.1987 260.715 62.0253 260.8 60.404C260.885 58.6973 260.928 57.332 260.928 56.308C260.928 54.8147 260.501 53.5133 259.648 52.404C258.837 51.252 257.685 50.676 256.192 50.676C255.296 50.676 254.357 50.9533 253.376 51.508C252.395 52.02 251.712 52.66 251.328 53.428C250.688 54.6653 250.24 56.0093 249.984 57.46C249.515 60.02 249.28 62.6867 249.28 65.46C249.28 66.7827 249.301 67.8067 249.344 68.532C249.344 68.7027 249.344 69.044 249.344 69.556C249.387 70.0253 249.344 70.4733 249.216 70.9C249.131 71.284 248.96 71.6467 248.704 71.988C248.491 72.2013 248.149 72.372 247.68 72.5C247.253 72.6707 246.848 72.756 246.464 72.756C245.867 72.756 245.12 72.5 244.224 71.988C243.328 71.476 242.816 70.9 242.688 70.26L242.624 69.172C242.624 68.788 242.667 68.34 242.752 67.828C243.264 64.8413 243.52 62.2387 243.52 60.02C243.52 59.0387 243.499 58.2707 243.456 57.716L243.392 54.708C243.392 53.684 243.136 52.7027 242.624 51.764C242.112 50.7827 241.515 50.292 240.832 50.292C240.619 50.292 240.32 50.3773 239.936 50.548C239.552 50.676 239.232 50.74 238.976 50.74C238.549 50.74 238.08 50.5267 237.568 50.1C237.099 49.6733 236.864 49.2253 236.864 48.756C236.864 47.86 237.163 47.1347 237.76 46.58C238.4 46.068 239.019 45.6627 239.616 45.364C240.256 45.0653 240.981 44.916 241.792 44.916C242.475 44.916 243.029 44.98 243.456 45.108C243.883 45.236 244.459 45.5133 245.184 45.94C245.568 46.1533 246.016 46.6227 246.528 47.348C247.04 48.0733 247.467 49.0973 247.808 50.42C248.917 48.372 250.283 46.9427 251.904 46.132C253.568 45.2787 255.68 44.852 258.24 44.852C259.221 44.852 260.267 45.172 261.376 45.812C262.528 46.452 263.509 47.1987 264.32 48.052C265.088 48.9907 265.728 50.164 266.24 51.572C266.752 52.9373 267.008 54.1747 267.008 55.284C267.008 55.924 266.965 56.9693 266.88 58.42C266.752 59.572 266.688 60.788 266.688 62.068C266.688 65.0547 267.264 66.8893 268.416 67.572ZM288.156 68.98C288.156 70.0467 287.729 71.0493 286.876 71.988C286.022 72.884 285.084 73.332 284.06 73.332C282.865 73.332 281.777 73.012 280.796 72.372C279.814 71.6893 279.324 70.836 279.324 69.812C279.324 68.1907 279.622 66.996 280.22 66.228C280.86 65.46 281.798 65.076 283.036 65.076C284.486 65.076 285.702 65.4387 286.684 66.164C287.665 66.8467 288.156 67.7853 288.156 68.98ZM341.794 35.508C342.05 34.612 342.434 33.8867 342.946 33.332C343.458 32.7347 344.012 32.436 344.61 32.436C346.06 32.436 347.106 32.7133 347.746 33.268C348.386 33.8227 348.706 34.7827 348.706 36.148C348.706 36.532 348.407 37.62 347.81 39.412C346.487 43.4653 345.036 48.4787 343.458 54.452C343.074 55.8173 342.754 57.012 342.498 58.036C342.284 59.06 342.092 59.9133 341.922 60.596C340.898 64.9907 340.002 68.2973 339.234 70.516C338.978 71.156 338.53 71.668 337.89 72.052C337.25 72.3933 336.567 72.564 335.842 72.564C335.116 72.564 334.391 72.4147 333.666 72.116C332.983 71.7747 332.492 71.3907 332.194 70.964C330.871 68.3613 329.228 64.82 327.266 60.34C325.346 55.8173 323.852 51.8707 322.786 48.5C320.14 55.1987 317.772 61.6627 315.682 67.892C315.554 68.276 315.404 68.7027 315.234 69.172C315.106 69.5987 314.956 70.0467 314.786 70.516C314.487 71.156 314.06 71.668 313.506 72.052C312.951 72.3933 312.332 72.564 311.65 72.564C310.882 72.564 310.135 72.4147 309.41 72.116C308.684 71.7747 308.194 71.3907 307.938 70.964C307.383 70.0253 306.786 68.5747 306.146 66.612C305.548 64.6493 304.738 61.8973 303.714 58.356L302.114 52.916C301.004 49.3747 300.044 45.748 299.234 42.036C298.423 38.324 298.018 36.1053 298.018 35.38C298.018 34.484 298.466 33.78 299.362 33.268C300.258 32.7133 301.154 32.436 302.05 32.436C302.562 32.436 303.095 32.6067 303.65 32.948C304.204 33.2467 304.567 33.78 304.738 34.548C306.231 42.5267 308.428 51.7853 311.33 62.324C312.439 59.6787 313.655 56.4573 314.978 52.66C316.343 48.8627 317.644 45.172 318.882 41.588L319.522 39.668C319.692 39.028 320.119 38.5373 320.802 38.196C321.527 37.812 322.252 37.62 322.978 37.62C323.916 37.62 324.684 37.8547 325.282 38.324C325.879 38.7933 326.263 39.3053 326.434 39.86C326.476 40.0307 327.33 42.5693 328.994 47.476C330.658 52.3827 332.642 57.332 334.946 62.324C335.799 59.8067 336.823 55.7747 338.018 50.228L338.978 46.004C340.13 41.4813 341.068 37.9827 341.794 35.508ZM366.335 68.98C366.335 70.0467 365.909 71.0493 365.055 71.988C364.202 72.884 363.263 73.332 362.239 73.332C361.045 73.332 359.957 73.012 358.975 72.372C357.994 71.6893 357.503 70.836 357.503 69.812C357.503 68.1907 357.802 66.996 358.399 66.228C359.039 65.46 359.978 65.076 361.215 65.076C362.666 65.076 363.882 65.4387 364.863 66.164C365.845 66.8467 366.335 67.7853 366.335 68.98ZM378.822 69.492C378.822 68.084 378.907 66.5267 379.078 64.82C379.248 62.8573 379.334 60.3827 379.334 57.396C379.334 51.9347 379.099 46.6653 378.63 41.588C378.374 38.4307 378.246 36.1907 378.246 34.868C378.246 33.972 378.694 33.2253 379.59 32.628C380.486 31.988 381.403 31.668 382.342 31.668C382.939 31.668 383.664 31.7107 384.518 31.796C385.371 31.8813 385.99 31.924 386.374 31.924C395.974 31.924 403.035 34.5053 407.558 39.668C410.416 42.996 411.846 47.412 411.846 52.916C411.846 55.22 411.419 57.5453 410.566 59.892C409.755 62.196 408.582 64.0733 407.046 65.524C405.382 67.1453 403.803 68.4467 402.31 69.428C400.859 70.3667 398.875 71.156 396.358 71.796C393.883 72.436 390.704 72.756 386.822 72.756C384.347 72.756 382.384 72.4787 380.934 71.924C379.526 71.3693 378.822 70.5587 378.822 69.492ZM389.254 66.932C392.112 66.932 394.736 66.42 397.126 65.396C399.515 64.3293 401.435 62.7507 402.886 60.66C404.336 58.5267 405.062 55.924 405.062 52.852C405.062 49.8227 404.635 47.3053 403.782 45.3C402.928 43.252 401.456 41.588 399.366 40.308C397.787 39.3267 395.846 38.6227 393.542 38.196C391.238 37.7267 388.464 37.492 385.222 37.492C385.222 37.9187 385.264 38.9 385.35 40.436C385.435 41.8867 385.478 43.1027 385.478 44.084L385.542 45.492C385.798 49.9293 385.926 53.4493 385.926 56.052C385.926 60.148 385.691 63.6893 385.222 66.676C386.246 66.8467 387.59 66.932 389.254 66.932Z" fill="white"/>
</svg>
