<svg width="204" height="204" viewBox="0 0 204 204" fill="none" xmlns="http://www.w3.org/2000/svg">
<mask id="path-1-outside-1_225_8" maskUnits="userSpaceOnUse" x="0.0864171" y="3.70801" width="204" height="200" fill="black">
<rect fill="white" x="0.0864171" y="3.70801" width="204" height="200"/>
<path fill-rule="evenodd" clip-rule="evenodd" d="M131.492 5.50095C172.691 18.0776 202.66 56.393 202.66 101.708C202.66 157.253 157.632 202.282 102.086 202.282C46.541 202.282 1.51258 157.253 1.51258 101.708C1.51258 56.3929 31.4819 18.0775 72.6814 5.50091L72.6814 5.05531C31.2432 17.6459 1.08642 56.1552 1.08642 101.708C1.08642 157.489 46.3057 202.708 102.086 202.708C157.867 202.708 203.086 157.489 203.086 101.708C203.086 56.1553 172.93 17.646 131.492 5.05535L131.492 5.50095Z"/>
</mask>
<path fill-rule="evenodd" clip-rule="evenodd" d="M131.492 5.50095C172.691 18.0776 202.66 56.393 202.66 101.708C202.66 157.253 157.632 202.282 102.086 202.282C46.541 202.282 1.51258 157.253 1.51258 101.708C1.51258 56.3929 31.4819 18.0775 72.6814 5.50091L72.6814 5.05531C31.2432 17.6459 1.08642 56.1552 1.08642 101.708C1.08642 157.489 46.3057 202.708 102.086 202.708C157.867 202.708 203.086 157.489 203.086 101.708C203.086 56.1553 172.93 17.646 131.492 5.05535L131.492 5.50095Z" fill="white"/>
<path d="M131.492 5.50095L131.065 5.50095C131.065 5.68839 131.188 5.85382 131.367 5.90854L131.492 5.50095ZM72.6814 5.50091L72.8059 5.9085C72.9851 5.85378 73.1076 5.68835 73.1076 5.50091L72.6814 5.50091ZM72.6814 5.05531L73.1076 5.05531C73.1076 4.92033 73.0436 4.79333 72.9352 4.71295C72.8268 4.63257 72.6867 4.60831 72.5575 4.64755L72.6814 5.05531ZM131.492 5.05535L131.615 4.6476C131.486 4.60836 131.346 4.63262 131.238 4.713C131.129 4.79338 131.065 4.92037 131.065 5.05535L131.492 5.05535ZM203.086 101.708C203.086 56.2003 172.99 17.7232 131.616 5.09336L131.367 5.90854C172.392 18.432 202.234 56.5856 202.234 101.708L203.086 101.708ZM102.086 202.708C157.867 202.708 203.086 157.489 203.086 101.708L202.234 101.708C202.234 157.018 157.396 201.856 102.086 201.856L102.086 202.708ZM1.08642 101.708C1.08642 157.489 46.3057 202.708 102.086 202.708L102.086 201.856C46.7764 201.856 1.93874 157.018 1.93874 101.708L1.08642 101.708ZM72.557 5.09332C31.1832 17.7231 1.08642 56.2003 1.08642 101.708L1.93874 101.708C1.93874 56.5856 31.7805 18.4319 72.8059 5.9085L72.557 5.09332ZM73.1076 5.50091L73.1076 5.05531L72.2553 5.05531L72.2553 5.50091L73.1076 5.50091ZM72.5575 4.64755C30.9448 17.2912 0.660259 55.9624 0.660261 101.708L1.51258 101.708C1.51258 56.3481 31.5416 18.0007 72.8053 5.46306L72.5575 4.64755ZM0.660261 101.708C0.660264 157.724 46.0703 203.134 102.086 203.134L102.086 202.282C46.541 202.282 1.51258 157.253 1.51258 101.708L0.660261 101.708ZM102.086 203.134C158.103 203.134 203.513 157.724 203.513 101.708L202.66 101.708C202.66 157.253 157.632 202.282 102.086 202.282L102.086 203.134ZM203.513 101.708C203.513 55.9624 173.228 17.2913 131.615 4.6476L131.368 5.4631C172.631 18.0007 202.66 56.3481 202.66 101.708L203.513 101.708ZM131.065 5.05535L131.065 5.50095L131.918 5.50095L131.918 5.05535L131.065 5.05535Z" fill="white" mask="url(#path-1-outside-1_225_8)"/>
<circle cx="103.873" cy="5.12935" r="3.5" transform="rotate(-55.1309 103.873 5.12935)" fill="white"/>
</svg>
